<svg width="35" height="32" viewBox="0 0 35 32" fill="none" xmlns="http://www.w3.org/2000/svg">
<path fill-rule="evenodd" clip-rule="evenodd" d="M15.2559 1.09393C15.94 0.704919 16.713 0.5 17.5 0.5C18.287 0.5 19.06 0.704919 19.7441 1.09393C20.4281 1.48288 20.9995 2.0423 21.4046 2.7168L21.4089 2.72391L21.4088 2.72392L34.3797 24.5944L34.3918 24.6151C34.7884 25.3089 34.9978 26.0944 35 26.8936C35.0022 27.6928 34.7972 28.4795 34.4044 29.1756C34.0116 29.8717 33.444 30.4536 32.7568 30.862C32.0695 31.2705 31.2871 31.4907 30.4875 31.4996L30.4709 31.4997H4.52912L4.51247 31.4996C3.71292 31.4907 2.93051 31.2705 2.2432 30.862C1.55599 30.4536 0.988446 29.8717 0.59558 29.1756C0.202768 28.4795 -0.00219786 27.6928 1.77622e-05 26.8936C0.00223339 26.0944 0.211559 25.3089 0.608243 24.6151L0.620279 24.5944L13.5912 2.72392L14.8813 3.48908L13.5954 2.7168C14.0005 2.0423 14.5719 1.48288 15.2559 1.09393ZM16.169 4.25843L16.1672 4.26137L3.2077 26.1128C3.07271 26.3523 3.00078 26.6242 3.00001 26.9019C2.99923 27.183 3.07138 27.4586 3.20823 27.7011C3.34503 27.9435 3.54124 28.1437 3.77587 28.2831C4.00841 28.4213 4.2713 28.4955 4.53891 28.4997H30.4611C30.7287 28.4955 30.9916 28.4213 31.2241 28.2831C31.4588 28.1437 31.655 27.9435 31.7918 27.7011C31.9286 27.4586 32.0008 27.183 32 26.9019C31.9992 26.6242 31.9273 26.3523 31.7923 26.1127L18.8328 4.26137L18.831 4.25843C18.6902 4.02513 18.4935 3.83394 18.2611 3.70178C18.0278 3.56913 17.7658 3.5 17.5 3.5C17.2342 3.5 16.9721 3.56913 16.7389 3.70178C16.5065 3.83394 16.3098 4.02513 16.169 4.25843ZM17.5 9.93896C18.3284 9.93896 19 10.6105 19 11.439V19.0877C19 19.9162 18.3284 20.5877 17.5 20.5877C16.6716 20.5877 16 19.9162 16 19.0877V11.439C16 10.6105 16.6716 9.93896 17.5 9.93896ZM17.5 22.3125C16.6716 22.3125 16 22.9841 16 23.8125C16 24.6409 16.6716 25.3125 17.5 25.3125H17.5169C18.3453 25.3125 19.0169 24.6409 19.0169 23.8125C19.0169 22.9841 18.3453 22.3125 17.5169 22.3125H17.5Z" fill="#FF9900"/>
</svg>
